<svg width="279" height="360" viewBox="0 0 279 360" fill="none" xmlns="http://www.w3.org/2000/svg">
<g opacity="0.1">
<path d="M-28.2594 -28.0155L-70.3597 52.2121C-73.0781 57.3922 -71.288 63.8686 -66.3333 66.7807L-0.411301 105.53C4.61151 108.483 10.9975 106.667 13.8539 101.474L94.432 -44.9948H-0.66925C-12.1806 -44.9948 -22.7689 -38.4791 -28.2594 -28.0155Z" fill="#A0A0B2"/>
<path d="M94.4322 -45L13.8568 101.47C10.9951 106.663 4.61349 108.483 -0.407593 105.532L-17.6139 95.422C-13.4193 96.1206 -9.05472 94.1265 -6.83319 90.0822L67.4944 -45H94.4322Z" fill="#A0A0B2"/>
<path d="M182.595 32.6814L153.557 -27.1026C148.23 -38.0712 137.375 -44.9946 125.507 -44.9946H41.55L106.011 68.1041C105.8 68.2022 105.588 68.3004 105.376 68.3985C101.322 70.2864 101.487 76.3016 105.639 77.9503L161.301 100.056C163.881 101.08 166.774 99.7484 167.765 97.0816L189.223 39.2961C190.809 35.0216 186.643 30.897 182.595 32.6814Z" fill="#A0A0B2"/>
<path d="M189.224 39.2916L167.76 97.0762C166.774 99.751 163.876 101.084 161.299 100.054L144.457 93.3629L164.534 39.2916C165.675 36.2251 163.852 33.239 161.237 32.4556C158.746 31.7089 156.619 30.0217 155.455 27.6253L128.868 -27.1044C123.544 -38.0695 112.693 -45 100.819 -45H125.508C137.373 -45 148.225 -38.0695 153.557 -27.1044L182.593 32.684C186.647 30.9005 190.806 35.018 189.224 39.2916Z" fill="#A0A0B2"/>
<path d="M126.503 263.179C125.721 259.86 121.58 258.438 119.052 261.051L75.5472 306.042C73.8114 307.837 73.8114 310.746 75.5472 312.54L119.22 357.704C121.73 360.299 125.829 358.914 126.654 355.651H190.878C202.701 355.651 213.523 348.78 218.872 337.876L255.519 263.178L126.503 263.179Z" fill="#A0A0B2"/>
<path d="M180.719 263.18L201.543 295.766C206.251 303.133 206.772 312.547 202.908 320.422L194.343 337.877C189.002 348.777 178.176 355.653 166.356 355.653H190.877C202.697 355.653 213.523 348.777 218.874 337.877L255.517 263.181L180.719 263.18Z" fill="#A0A0B2"/>
<path d="M38.8562 347.063V267.552C38.8562 261.576 34.1716 256.731 28.3922 256.731H-143.973L-99.6153 340.948C-94.1171 351.387 -83.5426 357.883 -72.0485 357.883H28.3922C34.1707 357.884 38.8562 353.039 38.8562 347.063Z" fill="#A0A0B2"/>
<path d="M-70.8728 256.738L-109.152 322.85L-143.974 256.738H-70.8728Z" fill="#A0A0B2"/>
<path d="M38.8522 267.553V347.066C38.8522 353.04 34.169 357.883 28.3922 357.883L0.937851 357.884C6.71468 357.884 11.3984 353.04 11.3984 347.066V267.553C11.3984 261.579 6.71468 256.735 0.937851 256.735H28.3916C34.1684 256.734 38.8522 261.579 38.8522 267.553Z" fill="#A0A0B2"/>
<path d="M-45.3496 186.474L-53.09 126.234C-53.4722 123.258 -56.1156 121.167 -58.9928 121.562L-117.468 129.597C-121.871 130.202 -123.512 135.741 -120.496 138.823L-157.4 193.831C-164.166 203.916 -164.853 217.085 -159.176 227.865L-119.016 304.111L-53.8096 191.47C-53.7863 191.488 -53.7638 191.507 -53.7405 191.525C-50.0187 194.446 -44.7345 191.264 -45.3496 186.474Z" fill="#A0A0B2"/>
<path d="M-53.7429 191.525C-53.761 191.507 -53.7869 191.489 -53.805 191.47L-119.014 304.108L-132.426 278.648L-77.8786 184.408C-77.0737 183.018 -75.5009 182.418 -73.9627 182.727C-73.9549 182.728 -73.9472 182.729 -73.9394 182.731C-70.6671 183.334 -67.3102 180.515 -67.8131 176.645L-74.6123 123.705L-58.9969 121.563C-56.1171 121.168 -53.4686 123.264 -53.0864 126.232L-45.3451 186.48C-44.7308 191.268 -50.0194 194.447 -53.7429 191.525Z" fill="#A0A0B2"/>
<path d="M273.161 189.692L222.68 114.048C219.584 109.408 213.56 108.005 208.839 110.822L143.052 150.081C137.831 153.197 136.229 160.219 139.553 165.421L232.293 310.525L275.32 222.819C280.528 212.203 279.7 199.49 273.161 189.692Z" fill="#A0A0B2"/>
<path d="M275.319 222.821L232.285 310.523L217.852 287.931L249.794 222.82C255.003 212.204 254.176 199.493 247.635 189.695L198.94 116.736L208.841 110.826C213.56 108.004 219.586 109.41 222.679 114.052L273.161 189.696C279.701 199.494 280.527 212.206 275.319 222.821Z" fill="#A0A0B2"/>
</g>
<path d="M92.4739 161.605V145.477H103.388V148.526H96.1121V151.691H102.572V154.67H96.1121V158.556H103.925V161.605H92.4739Z" fill="#322153"/>
<path d="M105.528 155.484C105.528 154.6 105.668 153.77 105.947 152.994C106.243 152.203 106.663 151.52 107.207 150.946C107.751 150.357 108.412 149.891 109.189 149.55C109.967 149.208 110.853 149.038 111.848 149.038C112.501 149.038 113.099 149.1 113.644 149.224C114.188 149.333 114.716 149.496 115.23 149.713L114.507 152.482C114.18 152.358 113.822 152.249 113.434 152.156C113.045 152.063 112.61 152.017 112.128 152.017C111.102 152.017 110.332 152.335 109.819 152.971C109.321 153.607 109.073 154.445 109.073 155.484C109.073 156.586 109.306 157.439 109.772 158.044C110.254 158.649 111.086 158.952 112.268 158.952C112.687 158.952 113.138 158.913 113.62 158.836C114.102 158.758 114.545 158.634 114.95 158.463L115.439 161.303C115.035 161.473 114.53 161.621 113.924 161.745C113.317 161.869 112.649 161.931 111.918 161.931C110.798 161.931 109.834 161.768 109.026 161.442C108.217 161.101 107.549 160.643 107.02 160.069C106.507 159.495 106.126 158.82 105.878 158.044C105.644 157.253 105.528 156.4 105.528 155.484Z" fill="#322153"/>
<path d="M128.654 155.461C128.654 156.423 128.514 157.307 128.234 158.114C127.954 158.905 127.55 159.588 127.021 160.162C126.493 160.721 125.855 161.155 125.109 161.465C124.378 161.776 123.554 161.931 122.637 161.931C121.735 161.931 120.911 161.776 120.165 161.465C119.434 161.155 118.804 160.721 118.276 160.162C117.747 159.588 117.335 158.905 117.04 158.114C116.744 157.307 116.596 156.423 116.596 155.461C116.596 154.499 116.744 153.623 117.04 152.831C117.35 152.04 117.77 151.365 118.299 150.807C118.843 150.248 119.481 149.814 120.211 149.503C120.958 149.193 121.766 149.038 122.637 149.038C123.523 149.038 124.331 149.193 125.062 149.503C125.808 149.814 126.446 150.248 126.975 150.807C127.503 151.365 127.915 152.04 128.211 152.831C128.506 153.623 128.654 154.499 128.654 155.461ZM125.109 155.461C125.109 154.391 124.891 153.553 124.456 152.948C124.036 152.327 123.43 152.017 122.637 152.017C121.844 152.017 121.23 152.327 120.794 152.948C120.359 153.553 120.141 154.391 120.141 155.461C120.141 156.532 120.359 157.385 120.794 158.021C121.23 158.642 121.844 158.952 122.637 158.952C123.43 158.952 124.036 158.642 124.456 158.021C124.891 157.385 125.109 156.532 125.109 155.461Z" fill="#322153"/>
<path d="M136.243 161.838C135.233 161.822 134.409 161.714 133.771 161.512C133.149 161.31 132.652 161.031 132.278 160.674C131.921 160.302 131.672 159.86 131.532 159.348C131.408 158.82 131.346 158.231 131.346 157.579V144.104L134.821 143.545V156.881C134.821 157.191 134.844 157.47 134.89 157.719C134.937 157.967 135.023 158.176 135.147 158.347C135.287 158.518 135.481 158.657 135.73 158.766C135.979 158.874 136.313 158.944 136.733 158.975L136.243 161.838Z" fill="#322153"/>
<path d="M138.142 155.577C138.142 154.491 138.305 153.545 138.631 152.738C138.973 151.916 139.417 151.233 139.961 150.69C140.505 150.147 141.127 149.736 141.827 149.457C142.542 149.177 143.272 149.038 144.019 149.038C145.76 149.038 147.136 149.573 148.147 150.644C149.157 151.699 149.663 153.258 149.663 155.321C149.663 155.523 149.655 155.748 149.639 155.996C149.624 156.229 149.608 156.439 149.593 156.625H141.71C141.788 157.338 142.122 157.905 142.713 158.324C143.304 158.743 144.097 158.952 145.092 158.952C145.729 158.952 146.351 158.898 146.957 158.789C147.579 158.665 148.085 158.518 148.473 158.347L148.94 161.163C148.753 161.256 148.504 161.349 148.193 161.442C147.882 161.535 147.533 161.613 147.144 161.675C146.771 161.752 146.366 161.815 145.931 161.861C145.496 161.908 145.06 161.931 144.625 161.931C143.521 161.931 142.557 161.768 141.733 161.442C140.925 161.116 140.248 160.674 139.704 160.116C139.176 159.542 138.779 158.867 138.515 158.091C138.266 157.315 138.142 156.477 138.142 155.577ZM146.304 154.251C146.289 153.956 146.234 153.669 146.141 153.39C146.063 153.111 145.931 152.862 145.745 152.645C145.574 152.428 145.348 152.249 145.068 152.11C144.804 151.97 144.47 151.9 144.065 151.9C143.677 151.9 143.342 151.97 143.063 152.11C142.783 152.234 142.549 152.405 142.363 152.622C142.176 152.839 142.029 153.095 141.92 153.39C141.827 153.669 141.757 153.956 141.71 154.251H146.304Z" fill="#322153"/>
<path d="M152.228 146.315L155.703 145.756V149.364H159.877V152.249H155.703V156.555C155.703 157.284 155.827 157.866 156.076 158.3C156.34 158.735 156.861 158.952 157.638 158.952C158.011 158.952 158.392 158.921 158.781 158.859C159.185 158.781 159.551 158.68 159.877 158.556L160.367 161.256C159.947 161.427 159.481 161.574 158.968 161.698C158.455 161.822 157.825 161.884 157.079 161.884C156.13 161.884 155.345 161.76 154.723 161.512C154.101 161.248 153.604 160.891 153.23 160.441C152.857 159.976 152.593 159.417 152.438 158.766C152.298 158.114 152.228 157.393 152.228 156.601V146.315Z" fill="#322153"/>
<path d="M166.939 159.185C167.281 159.185 167.608 159.177 167.919 159.161C168.23 159.146 168.478 159.123 168.665 159.092V156.462C168.525 156.431 168.315 156.4 168.035 156.369C167.755 156.338 167.499 156.322 167.266 156.322C166.939 156.322 166.628 156.345 166.333 156.392C166.053 156.423 165.804 156.493 165.586 156.601C165.369 156.71 165.198 156.857 165.073 157.044C164.949 157.23 164.887 157.463 164.887 157.742C164.887 158.285 165.066 158.665 165.423 158.882C165.796 159.084 166.302 159.185 166.939 159.185ZM166.659 149.038C167.685 149.038 168.541 149.154 169.225 149.387C169.909 149.62 170.453 149.953 170.857 150.388C171.277 150.822 171.572 151.35 171.743 151.97C171.914 152.591 172 153.281 172 154.041V161.256C171.502 161.365 170.811 161.489 169.924 161.628C169.038 161.784 167.965 161.861 166.706 161.861C165.913 161.861 165.19 161.791 164.537 161.652C163.9 161.512 163.348 161.287 162.881 160.977C162.415 160.651 162.057 160.232 161.808 159.72C161.56 159.208 161.435 158.58 161.435 157.835C161.435 157.121 161.575 156.516 161.855 156.02C162.15 155.523 162.539 155.128 163.021 154.833C163.503 154.538 164.055 154.328 164.677 154.204C165.299 154.065 165.944 153.995 166.613 153.995C167.064 153.995 167.46 154.018 167.802 154.065C168.16 154.096 168.447 154.142 168.665 154.204V153.879C168.665 153.289 168.486 152.816 168.129 152.459C167.771 152.102 167.149 151.924 166.263 151.924C165.672 151.924 165.089 151.97 164.514 152.063C163.938 152.141 163.441 152.257 163.021 152.412L162.578 149.62C162.78 149.558 163.029 149.496 163.324 149.433C163.635 149.356 163.969 149.294 164.327 149.247C164.685 149.185 165.058 149.139 165.447 149.108C165.851 149.061 166.255 149.038 166.659 149.038Z" fill="#322153"/>
<path d="M50.671 138.345L47.3368 144.699C47.1215 145.109 47.2633 145.622 47.6557 145.853L52.8765 148.922C53.2743 149.155 53.78 149.012 54.0063 148.6L60.3878 137H52.8561C51.9444 137 51.1059 137.516 50.671 138.345Z" fill="#29A361"/>
<path d="M60.3876 137L54.0063 148.6C53.7797 149.011 53.2743 149.155 52.8766 148.922L51.5139 148.121C51.8461 148.176 52.1918 148.018 52.3677 147.698L58.2542 137H60.3876Z" fill="#248F55"/>
<path d="M67.3702 143.152L65.0705 138.417C64.6485 137.549 63.7889 137 62.8489 137H56.1998L61.305 145.958C61.2882 145.965 61.2714 145.973 61.2547 145.981C60.9336 146.13 60.9467 146.607 61.2755 146.737L65.6837 148.488C65.888 148.569 66.1172 148.464 66.1956 148.252L67.895 143.676C68.0207 143.337 67.6907 143.011 67.3702 143.152Z" fill="#34CB79"/>
<path d="M67.8952 143.676L66.1953 148.252C66.1172 148.464 65.8877 148.569 65.6836 148.488L64.3498 147.958L65.9398 143.676C66.0302 143.433 65.8859 143.196 65.6787 143.134C65.4814 143.075 65.313 142.941 65.2208 142.752L63.1152 138.417C62.6936 137.549 61.8342 137 60.8938 137H62.8491C63.7888 137 64.6482 137.549 65.0705 138.417L67.3701 143.152C67.6911 143.011 68.0205 143.337 67.8952 143.676Z" fill="#2FB86E"/>
<path d="M62.9278 161.407C62.8659 161.144 62.5379 161.031 62.3377 161.238L58.8923 164.801C58.7548 164.943 58.7548 165.174 58.8923 165.316L62.3511 168.893C62.5498 169.098 62.8744 168.989 62.9397 168.73H68.0261C68.9625 168.73 69.8195 168.186 70.2432 167.322L73.1454 161.407H62.9278V161.407Z" fill="#29A361"/>
<path d="M67.2216 161.407L68.8708 163.988C69.2437 164.571 69.2849 165.317 68.9789 165.94L68.3006 167.323C67.8776 168.186 67.0202 168.73 66.0841 168.73H68.0261C68.9622 168.73 69.8196 168.186 70.2433 167.323L73.1454 161.407H67.2216V161.407Z" fill="#248F55"/>
<path d="M55.9865 168.05V161.753C55.9865 161.28 55.6155 160.896 55.1578 160.896H41.507L45.02 167.566C45.4554 168.393 46.2929 168.907 47.2032 168.907H55.1578C55.6154 168.907 55.9865 168.523 55.9865 168.05Z" fill="#29A361"/>
<path d="M47.2963 160.897L44.2647 166.133L41.507 160.897H47.2963Z" fill="#248F55"/>
<path d="M55.9863 161.753V168.05C55.9863 168.524 55.6154 168.907 55.1579 168.907H52.9836C53.4411 168.907 53.8121 168.524 53.8121 168.05V161.753C53.8121 161.28 53.4411 160.897 52.9836 160.897H55.1579C55.6154 160.896 55.9863 161.28 55.9863 161.753Z" fill="#248F55"/>
<path d="M49.3175 155.332L48.7045 150.561C48.6743 150.326 48.4649 150.16 48.237 150.191L43.606 150.828C43.2573 150.875 43.1273 151.314 43.3662 151.558L40.4435 155.915C39.9076 156.713 39.8532 157.756 40.3029 158.61L43.4834 164.648L48.6475 155.728C48.6494 155.729 48.6512 155.731 48.653 155.732C48.9478 155.963 49.3663 155.711 49.3175 155.332Z" fill="#34CB79"/>
<path d="M48.6527 155.732C48.6512 155.731 48.6492 155.729 48.6478 155.728L43.4834 164.648L42.4213 162.632L46.6246 155.37L46.7412 155.168C46.805 155.058 46.9295 155.011 47.0513 155.035C47.052 155.035 47.0526 155.035 47.0532 155.036C47.3123 155.083 47.5782 154.86 47.5384 154.554L46.9999 150.361L48.2366 150.191C48.4646 150.16 48.6744 150.326 48.7047 150.561L49.3178 155.332C49.3664 155.712 48.9476 155.963 48.6527 155.732Z" fill="#2FB86E"/>
<path d="M74.5425 155.587L70.5445 149.596C70.2993 149.229 69.8223 149.117 69.4483 149.341L64.2382 152.45C63.8247 152.697 63.6979 153.253 63.9611 153.665L71.3058 165.156L74.7135 158.21C75.1259 157.37 75.0603 156.363 74.5425 155.587Z" fill="#34CB79"/>
<path d="M74.7135 158.211L71.3054 165.156L70.1623 163.367L72.6921 158.21C73.1045 157.37 73.0391 156.363 72.521 155.587L68.6646 149.809L69.4487 149.341C69.8224 149.117 70.2996 149.229 70.5446 149.596L74.5426 155.587C75.0606 156.363 75.126 157.37 74.7135 158.211Z" fill="#2FB86E"/>
</svg>
